HIERARCHY
ROOT root
{
	OFFSET	0	13.1	24.9
	CHANNELS 6  Xposition Yposition Zposition Xrotation Yrotation Zrotation
	JOINT spine_1
	{
		OFFSET	0	9.99999	0
		CHANNELS 3  Xrotation Yrotation Zrotation
		JOINT spine_2
		{
			OFFSET	0	112	-10
			CHANNELS 3  Xrotation Yrotation Zrotation
			JOINT spine_3
			{
				OFFSET	0	206.5	19.3
				CHANNELS 3  Xrotation Yrotation Zrotation
				JOINT spine_4
				{
					OFFSET	0	110.4	14.6
					CHANNELS 3  Xrotation Yrotation Zrotation
					JOINT neck_1
					{
						OFFSET	0	71.8	-50.3
						CHANNELS 3  Xrotation Yrotation Zrotation
						JOINT neck_2
						{
							OFFSET	0	86.2	-25.8
							CHANNELS 3  Xrotation Yrotation Zrotation
							JOINT head_ee
							{
								OFFSET	0	179.8	-8.7
								CHANNELS 3  Xrotation Yrotation Zrotation
								End Site
								{
									OFFSET	1	0	0
								}
							}
						}
					}
					JOINT left_clavicle
					{
						OFFSET	-43.2	22.4	-70.8
						CHANNELS 3  Xrotation Yrotation Zrotation
						JOINT left_shoulder
						{
							OFFSET	-93.9	-5.79999	48.7
							CHANNELS 3  Xrotation Yrotation Zrotation
							JOINT left_elbow
							{
								OFFSET	-291.4	-30.8	15.2
								CHANNELS 3  Xrotation Yrotation Zrotation
								JOINT left_lowarm_twist
								{
									OFFSET	-110.7	-3.89999	13.6
									CHANNELS 3  Xrotation Yrotation Zrotation
									JOINT left_hand
									{
										OFFSET	-110.7	-3.89999	13.6
										CHANNELS 3  Xrotation Yrotation Zrotation
										JOINT left_ee
										{
											OFFSET	-80.8	-5.10001	12.1
											CHANNELS 3  Xrotation Yrotation Zrotation
											End Site
											{
												OFFSET	1	0	0
											}
										}
									}
								}
							}
						}
					}
					JOINT right_clavicle
					{
						OFFSET	43.2	22.4	-70.8
						CHANNELS 3  Xrotation Yrotation Zrotation
						JOINT right_shoulder
						{
							OFFSET	93.9	-5.79999	48.7
							CHANNELS 3  Xrotation Yrotation Zrotation
							JOINT right_elbow
							{
								OFFSET	291.4	-30.8	15.2
								CHANNELS 3  Xrotation Yrotation Zrotation
								JOINT right_lowarm_twist
								{
									OFFSET	110.7	-3.89999	13.6
									CHANNELS 3  Xrotation Yrotation Zrotation
									JOINT right_hand
									{
										OFFSET	110.7	-3.89999	13.6
										CHANNELS 3  Xrotation Yrotation Zrotation
										JOINT right_ee
										{
											OFFSET	80.8	-5.10001	12.1
											CHANNELS 3  Xrotation Yrotation Zrotation
											End Site
											{
												OFFSET	1	0	0
											}
										}
									}
								}
							}
						}
					}
				}
			}
		}
	}
	JOINT left_hip
	{
		OFFSET	-82.8	-127.5	0.300001
		CHANNELS 3  Xrotation Yrotation Zrotation
		JOINT left_knee
		{
			OFFSET	-28.2	-396.7	2.2
			CHANNELS 3  Xrotation Yrotation Zrotation
			JOINT left_ankle
			{
				OFFSET	-11.7	-411.3	35.4
				CHANNELS 3  Xrotation Yrotation Zrotation
				JOINT left_toes
				{
					OFFSET	0	-60	-88.6
					CHANNELS 3  Xrotation Yrotation Zrotation
					JOINT left_foot_ee
					{
						OFFSET	-22.5	-16.5	-42.2
						CHANNELS 3  Xrotation Yrotation Zrotation
						End Site
						{
							OFFSET	1	0	0
						}
					}
				}
			}
		}
	}
	JOINT right_hip
	{
		OFFSET	82.8	-127.5	0.300001
		CHANNELS 3  Xrotation Yrotation Zrotation
		JOINT right_knee
		{
			OFFSET	28.2	-396.7	2.2
			CHANNELS 3  Xrotation Yrotation Zrotation
			JOINT right_ankle
			{
				OFFSET	11.7	-411.3	35.4
				CHANNELS 3  Xrotation Yrotation Zrotation
				JOINT right_toes
				{
					OFFSET	0	-60	-88.6
					CHANNELS 3  Xrotation Yrotation Zrotation
					JOINT right_foot_ee
					{
						OFFSET	22.5	-16.5	-42.2
						CHANNELS 3  Xrotation Yrotation Zrotation
						End Site
						{
							OFFSET	1	0	0
						}
					}
				}
			}
		}
	}
}
MOTION
Frames: 7
Frame Time: 0.02
420.199 692.123 -571.573 -143.558 -76.1668 -149.131 3.09323 0.158189 1.88603 3.09521 0.0378777 1.89227 3.09578 -0.259898 1.87472 3.09088 0.0393864 1.89224 -15.6258 9.87288 -2.90304 -16.0195 20.5911 0.740336 -0.0 0.0 -0.0 4.10719 24.0688 8.35928 -9.44062 -29.457 68.743 2.89674 -55.1173 1.51196 -75.4192 -7.23842 5.31793 0.294423 14.0124 7.60187 -0.0 0.0 -0.0 9.75975 -11.2348 -18.2759 -24.5024 8.88165 -60.1552 0.200946 5.6848 -0.00997699 -5.60104 0.230697 -0.677519 3.54309 -30.4531 -32.5633 0.0 0.0 0.0 4.21261 24.2988 6.63198 -7.65107 0.23858 1.1491 25.9415 6.54135 -3.43906 -20.4001 0.0 0.0 -0.0 0.0 -0.0 21.9463 -4.39153 14.5686 -19.9918 -0.295738 -3.0381 -25.1939 -23.6042 -3.92247 -33.0122 0.0 0.0 0.0 0.0 0.0 
426.791 691.028 -566.548 -140.058 -76.3815 -145.959 3.1754 0.13034 1.8878 3.17738 0.0099718 1.89227 3.17698 -0.28482 1.87075 3.1721 0.0141486 1.89224 -13.6888 7.92532 -2.19827 -13.8742 16.4551 0.397074 -0.0 0.0 -0.0 4.0933 23.4362 8.34735 -9.38666 -29.2976 69.1745 2.80338 -54.2326 1.43578 -74.2679 -7.09132 5.32012 0.31992 12.8744 7.32429 -0.0 0.0 -0.0 9.76274 -10.8449 -18.3247 -24.5546 9.30416 -59.8252 0.197172 5.5787 -0.00960654 -7.74103 0.336184 -0.930016 3.35936 -30.4764 -31.3688 0.0 0.0 0.0 4.4172 23.9655 6.80175 -8.05398 0.246866 1.21038 25.1116 6.66745 -3.34363 -18.3705 0.0 0.0 -0.0 0.0 -0.0 21.9075 -6.58124 14.6502 -18.0285 -0.313894 -2.73744 -25.4023 -24.4438 -3.97087 -33.9758 0.0 0.0 0.0 0.0 0.0 
434.707 693.469 -556.941 -136.963 -76.8707 -143.322 3.20087 0.106771 1.84758 3.20277 -0.0109919 1.85063 3.2017 -0.298262 1.82648 3.19705 -0.00611189 1.85066 -13.2758 7.711 -1.45145 -13.4362 15.5815 0.978247 -0.0 0.0 -0.0 3.8638 22.9597 8.02975 -9.70044 -29.1747 69.5055 2.61677 -52.343 1.28616 -73.9777 -7.05424 5.3202 0.340127 13.1631 7.56394 -0.0 0.0 -0.0 9.66573 -10.668 -18.165 -24.9149 9.92892 -60.2337 0.187244 5.29944 -0.00866555 -10.2854 0.473797 -1.22492 3.12608 -30.4962 -29.8797 0.0 0.0 0.0 4.25742 23.4291 6.46925 -7.42617 0.233767 1.11493 23.8717 6.22246 -3.19902 -18.1286 0.0 0.0 -0.0 0.0 -0.0 21.1251 -6.25176 14.4367 -18.4412 -0.310932 -2.80069 -25.0774 -25.9636 -3.95127 -34.1745 0.0 0.0 0.0 0.0 0.0 
441.049 691.08 -552.441 -136.855 -76.8611 -143.366 3.14952 0.248927 1.78766 3.15129 0.134688 1.79987 3.15491 -0.14786 1.79883 3.15042 0.138041 1.79961 -13.5248 6.4227 -0.341175 -13.6338 12.4469 1.65863 -0.0 0.0 -0.0 3.71784 23.4258 7.82554 -9.00608 -29.3572 70.4134 2.46781 -50.7086 1.16953 -73.4701 -6.98937 5.31989 0.363653 13.3691 7.79223 -0.0 0.0 -0.0 9.50609 -10.4736 -17.891 -25.0233 10.5322 -60.2724 0.26779 7.55666 -0.017685 -10.8238 0.504591 -1.28653 3.47537 -30.4439 -32.1186 0.0 0.0 0.0 4.01591 22.2324 6.45499 -6.60915 0.215154 0.99093 21.4141 6.44879 -2.90459 -15.8843 0.0 0.0 -0.0 0.0 -0.0 20.5978 -5.35445 14.1954 -19.2305 -0.304001 -2.92159 -24.8277 -26.2094 -3.91725 -33.918 0.0 0.0 0.0 0.0 0.0 
445.277 688.067 -541.962 -135.581 -77.727 -142.284 3.15697 0.36965 1.859 3.15886 0.250629 1.87874 3.16645 -0.0452098 1.89484 3.16153 0.254559 1.87821 -14.3389 5.20085 2.1192 -14.3847 8.64941 3.67483 -0.0 0.0 -0.0 3.5598 23.4785 7.60654 -8.27753 -27.2257 71.1805 2.34044 -49.2142 1.072 -69.1401 -6.43633 5.29371 0.211081 12.6963 6.56438 -0.0 0.0 -0.0 9.78938 -9.86977 -18.4787 -25.7591 14.7943 -61.0586 0.198487 5.61568 -0.0097349 -19.1672 1.05409 -2.20116 3.89847 -30.9702 -34.98 0.0 0.0 0.0 3.66632 20.9054 5.86702 -4.62946 0.162733 0.691654 18.8107 4.5566 -2.58499 -12.5078 0.0 0.0 -0.0 0.0 -0.0 20.2413 -6.07311 13.9987 -21.1675 -0.279936 -3.21781 -25.2252 -28.6428 -4.03792 -28.3146 0.0 0.0 0.0 0.0 0.0 
450.061 687.11 -534.89 -130.698 -78.5801 -137.136 3.12733 0.365459 1.64746 3.1288 0.259901 1.66737 3.1359 -0.00400166 1.6875 3.13202 0.26252 1.66696 -14.8201 6.19382 -1.44168 -14.9522 12.6991 0.687992 -0.0 0.0 -0.0 3.4686 23.6049 7.4812 -8.59093 -28.0899 71.1891 2.28297 -48.5089 1.02872 -69.2389 -6.44893 5.29478 0.398125 13.1205 7.91547 -0.0 0.0 -0.0 9.89989 -9.93915 -18.6776 -24.2784 11.7169 -60.9076 0.231476 6.54149 -0.0132283 -18.659 1.01685 -2.14779 4.42565 -31.0752 -38.666 0.0 0.0 0.0 3.64701 20.0351 5.03348 -3.70341 0.134666 0.552306 21.8967 4.16295 -2.96654 -12.9215 0.0 0.0 -0.0 0.0 -0.0 20.3854 -6.73567 13.819 -23.0251 -0.247462 -3.50099 -25.0548 -28.9126 -4.0176 -25.4516 0.0 0.0 0.0 0.0 0.0 
459.683 683.66 -526.025 -127.882 -79.087 -134.398 3.13157 0.51078 1.68235 3.13305 0.402708 1.71143 3.14464 0.130494 1.75331 3.14058 0.405718 1.71072 -15.362 3.75605 1.4524 -15.3917 6.33598 2.63646 -0.0 0.0 -0.0 2.98795 23.39 6.81392 -9.08844 -29.3075 71.2438 2.17835 -47.1724 0.951164 -69.5109 -6.48361 5.2976 0.383438 13.4043 7.93105 -0.0 0.0 -0.0 9.97779 -8.72225 -18.9519 -23.8044 11.5521 -61.2981 0.243971 6.89129 -0.0146896 -20.2598 1.13577 -2.31478 4.34563 -31.0594 -38.0918 0.0 0.0 0.0 3.56551 18.6137 4.79431 -5.26248 0.180621 0.787156 22.3622 2.94403 -3.0264 -12.0599 0.0 0.0 -0.0 0.0 -0.0 19.8641 -7.57471 13.5167 -24.4977 -0.215201 -3.72467 -25.1882 -30.4132 -4.0799 -24.6325 0.0 0.0 0.0 0.0 0.0 
